<mxfile host="app.diagrams.net" modified="2022-12-24T09:15:05.052Z" agent="5.0 (Windows NT 10.0; Win64; x64) AppleWebKit/537.36 (KHTML, like Gecko) Chrome/108.0.0.0 Safari/537.36 Edg/108.0.1462.54" etag="RnAinwSYP8l19dfx0_5N" version="20.7.4" type="github">
  <diagram id="ApC89uumz0tHUjcubNxA" name="Страница 1">
    <mxGraphModel dx="1387" dy="796" grid="1" gridSize="10" guides="1" tooltips="1" connect="1" arrows="1" fold="1" page="1" pageScale="1" pageWidth="827" pageHeight="1169" math="0" shadow="0">
      <root>
        <mxCell id="0" />
        <mxCell id="1" parent="0" />
        <mxCell id="mJ1nvMA460GZ3lgA4mz--47" value="" style="rounded=1;orthogonalLoop=1;jettySize=auto;html=1;startArrow=none;startFill=0;endArrow=none;endFill=0;" parent="1" source="mJ1nvMA460GZ3lgA4mz--1" target="mJ1nvMA460GZ3lgA4mz--17" edge="1">
          <mxGeometry relative="1" as="geometry" />
        </mxCell>
        <mxCell id="mJ1nvMA460GZ3lgA4mz--1" value="ИС Транспортная&lt;br&gt;компания" style="shape=umlActor;verticalLabelPosition=bottom;verticalAlign=top;html=1;" parent="1" vertex="1">
          <mxGeometry x="60" y="570" width="30" height="60" as="geometry" />
        </mxCell>
        <mxCell id="mJ1nvMA460GZ3lgA4mz--21" style="edgeStyle=orthogonalEdgeStyle;rounded=0;orthogonalLoop=1;jettySize=auto;html=1;entryX=0;entryY=0.5;entryDx=0;entryDy=0;endArrow=none;endFill=0;" parent="1" source="mJ1nvMA460GZ3lgA4mz--3" target="mJ1nvMA460GZ3lgA4mz--10" edge="1">
          <mxGeometry relative="1" as="geometry" />
        </mxCell>
        <mxCell id="mJ1nvMA460GZ3lgA4mz--26" style="rounded=0;orthogonalLoop=1;jettySize=auto;html=1;entryX=0.043;entryY=0.28;entryDx=0;entryDy=0;endArrow=none;endFill=0;entryPerimeter=0;" parent="1" target="mJ1nvMA460GZ3lgA4mz--13" edge="1" source="mJ1nvMA460GZ3lgA4mz--3">
          <mxGeometry relative="1" as="geometry">
            <mxPoint x="90" y="330" as="sourcePoint" />
          </mxGeometry>
        </mxCell>
        <mxCell id="mJ1nvMA460GZ3lgA4mz--27" style="edgeStyle=none;rounded=0;orthogonalLoop=1;jettySize=auto;html=1;entryX=0.278;entryY=0.933;entryDx=0;entryDy=0;endArrow=none;endFill=0;entryPerimeter=0;" parent="1" target="mJ1nvMA460GZ3lgA4mz--16" edge="1">
          <mxGeometry relative="1" as="geometry">
            <mxPoint x="90" y="340" as="sourcePoint" />
          </mxGeometry>
        </mxCell>
        <mxCell id="mJ1nvMA460GZ3lgA4mz--3" value="Пассажир" style="shape=umlActor;verticalLabelPosition=bottom;verticalAlign=top;html=1;" parent="1" vertex="1">
          <mxGeometry x="60" y="327.5" width="30" height="60" as="geometry" />
        </mxCell>
        <mxCell id="mJ1nvMA460GZ3lgA4mz--9" value="Рекомендация возможных пересадок&lt;span style=&quot;color: rgba(0, 0, 0, 0); font-family: monospace; font-size: 0px; text-align: start;&quot;&gt;%3CmxGraphModel%3E%3Croot%3E%3CmxCell%20id%3D%220%22%2F%3E%3CmxCell%20id%3D%221%22%20parent%3D%220%22%2F%3E%3CmxCell%20id%3D%222%22%20value%3D%22%D0%9D%D0%B0%D1%85%D0%BE%D0%B6%D0%B4%D0%B5%D0%BD%D0%B8%D0%B5%20%D0%BE%D0%BF%D1%82%D0%B8%D0%BC%D0%B0%D0%BB%D1%8C%D0%BD%D1%8B%D1%85%20%D0%BC%D0%B0%D1%80%D1%88%D1%80%D1%83%D1%82%D0%BE%D0%B2%26amp%3Bnbsp%3B%22%20style%3D%22ellipse%3BwhiteSpace%3Dwrap%3Bhtml%3D1%3B%22%20vertex%3D%221%22%20parent%3D%221%22%3E%3CmxGeometry%20x%3D%22400%22%20y%3D%22190%22%20width%3D%22140%22%20height%3D%2270%22%20as%3D%22geometry%22%2F%3E%3C%2FmxCell%3E%3C%2Froot%3E%3C%2FmxGraphModel%3E&lt;/span&gt;" style="ellipse;whiteSpace=wrap;html=1;" parent="1" vertex="1">
          <mxGeometry x="479" y="160" width="100" height="70" as="geometry" />
        </mxCell>
        <mxCell id="mJ1nvMA460GZ3lgA4mz--10" value="&lt;div style=&quot;&quot;&gt;&lt;span style=&quot;background-color: initial;&quot;&gt;Найти подходящий транспорт и маршрут&lt;/span&gt;&lt;/div&gt;" style="ellipse;whiteSpace=wrap;html=1;align=center;" parent="1" vertex="1">
          <mxGeometry x="290" y="325" width="125" height="65" as="geometry" />
        </mxCell>
        <mxCell id="mJ1nvMA460GZ3lgA4mz--31" style="edgeStyle=orthogonalEdgeStyle;rounded=1;orthogonalLoop=1;jettySize=auto;html=1;endArrow=none;endFill=0;dashed=1;startArrow=open;startFill=0;exitX=0.5;exitY=0;exitDx=0;exitDy=0;" parent="1" source="mJ1nvMA460GZ3lgA4mz--11" edge="1" target="mJ1nvMA460GZ3lgA4mz--9">
          <mxGeometry relative="1" as="geometry">
            <mxPoint x="498.5" y="256.52" as="targetPoint" />
            <mxPoint x="390" y="241" as="sourcePoint" />
            <Array as="points">
              <mxPoint x="400" y="240" />
              <mxPoint x="400" y="240" />
            </Array>
          </mxGeometry>
        </mxCell>
        <mxCell id="mJ1nvMA460GZ3lgA4mz--40" style="edgeStyle=orthogonalEdgeStyle;rounded=1;orthogonalLoop=1;jettySize=auto;html=1;exitX=0.629;exitY=0.979;exitDx=0;exitDy=0;entryX=0.309;entryY=0;entryDx=0;entryDy=0;entryPerimeter=0;dashed=1;endArrow=open;endFill=0;exitPerimeter=0;" parent="1" source="mJ1nvMA460GZ3lgA4mz--11" target="mJ1nvMA460GZ3lgA4mz--14" edge="1">
          <mxGeometry relative="1" as="geometry">
            <Array as="points">
              <mxPoint x="406" y="330" />
              <mxPoint x="494" y="330" />
            </Array>
          </mxGeometry>
        </mxCell>
        <mxCell id="mJ1nvMA460GZ3lgA4mz--11" value="Вывод маршрутов по критериям Пассажира" style="ellipse;whiteSpace=wrap;html=1;" parent="1" vertex="1">
          <mxGeometry x="340" y="245" width="120" height="70" as="geometry" />
        </mxCell>
        <mxCell id="mJ1nvMA460GZ3lgA4mz--12" value="Запрос критериев поиска маршрута" style="ellipse;whiteSpace=wrap;html=1;" parent="1" vertex="1">
          <mxGeometry x="80" y="480" width="110" height="50" as="geometry" />
        </mxCell>
        <mxCell id="mJ1nvMA460GZ3lgA4mz--13" value="Ввод критериев поиска маршрута" style="ellipse;whiteSpace=wrap;html=1;" parent="1" vertex="1">
          <mxGeometry x="120" y="370" width="115" height="50" as="geometry" />
        </mxCell>
        <mxCell id="mJ1nvMA460GZ3lgA4mz--14" value="Нахождение оптимальных маршрутов&amp;nbsp;" style="ellipse;whiteSpace=wrap;html=1;" parent="1" vertex="1">
          <mxGeometry x="460" y="390" width="110" height="50" as="geometry" />
        </mxCell>
        <mxCell id="mJ1nvMA460GZ3lgA4mz--15" value="Сортировка оптимизации по: цене, времени, пересадке" style="ellipse;whiteSpace=wrap;html=1;" parent="1" vertex="1">
          <mxGeometry x="430" y="520" width="126" height="60" as="geometry" />
        </mxCell>
        <mxCell id="mJ1nvMA460GZ3lgA4mz--16" value="Выбор понравившегося маршрута" style="ellipse;whiteSpace=wrap;html=1;" parent="1" vertex="1">
          <mxGeometry x="150" y="180" width="115" height="60" as="geometry" />
        </mxCell>
        <mxCell id="mJ1nvMA460GZ3lgA4mz--17" value="Предоставление расписания всевозможных маршрутов" style="ellipse;whiteSpace=wrap;html=1;" parent="1" vertex="1">
          <mxGeometry x="225" y="560" width="140" height="70" as="geometry" />
        </mxCell>
        <mxCell id="mJ1nvMA460GZ3lgA4mz--34" value="&amp;lt;&amp;lt;extend&amp;gt;&amp;gt;" style="text;html=1;resizable=0;autosize=1;align=center;verticalAlign=middle;points=[];fillColor=none;strokeColor=none;rounded=0;" parent="1" vertex="1">
          <mxGeometry x="389" y="195" width="90" height="30" as="geometry" />
        </mxCell>
        <mxCell id="mJ1nvMA460GZ3lgA4mz--35" style="edgeStyle=orthogonalEdgeStyle;rounded=1;orthogonalLoop=1;jettySize=auto;html=1;endArrow=none;endFill=0;dashed=1;startArrow=open;startFill=0;" parent="1" source="mJ1nvMA460GZ3lgA4mz--14" target="mJ1nvMA460GZ3lgA4mz--15" edge="1">
          <mxGeometry relative="1" as="geometry">
            <mxPoint x="538" y="483" as="targetPoint" />
            <mxPoint x="430" y="475" as="sourcePoint" />
            <Array as="points">
              <mxPoint x="515" y="500" />
              <mxPoint x="515" y="500" />
            </Array>
          </mxGeometry>
        </mxCell>
        <mxCell id="mJ1nvMA460GZ3lgA4mz--36" value="&amp;lt;&amp;lt;extend&amp;gt;&amp;gt;" style="text;html=1;resizable=0;autosize=1;align=center;verticalAlign=middle;points=[];fillColor=none;strokeColor=none;rounded=0;" parent="1" vertex="1">
          <mxGeometry x="434" y="450" width="90" height="30" as="geometry" />
        </mxCell>
        <mxCell id="mJ1nvMA460GZ3lgA4mz--41" value="&amp;lt;&amp;lt;include&amp;gt;&amp;gt;" style="text;html=1;resizable=0;autosize=1;align=center;verticalAlign=middle;points=[];fillColor=none;strokeColor=none;rounded=0;" parent="1" vertex="1">
          <mxGeometry x="410" y="310" width="90" height="30" as="geometry" />
        </mxCell>
        <mxCell id="mJ1nvMA460GZ3lgA4mz--49" style="edgeStyle=orthogonalEdgeStyle;rounded=1;orthogonalLoop=1;jettySize=auto;html=1;endArrow=open;endFill=0;exitX=0.172;exitY=0.923;exitDx=0;exitDy=0;dashed=1;startArrow=none;startFill=0;exitPerimeter=0;" parent="1" source="mJ1nvMA460GZ3lgA4mz--10" target="mJ1nvMA460GZ3lgA4mz--17" edge="1">
          <mxGeometry relative="1" as="geometry">
            <mxPoint x="240" y="520" as="targetPoint" />
            <mxPoint x="316" y="390" as="sourcePoint" />
            <Array as="points">
              <mxPoint x="312" y="450" />
              <mxPoint x="240" y="450" />
            </Array>
          </mxGeometry>
        </mxCell>
        <mxCell id="mJ1nvMA460GZ3lgA4mz--50" value="&amp;lt;&amp;lt;include&amp;gt;&amp;gt;" style="text;html=1;resizable=0;autosize=1;align=center;verticalAlign=middle;points=[];fillColor=none;strokeColor=none;rounded=0;" parent="1" vertex="1">
          <mxGeometry x="225" y="430" width="90" height="30" as="geometry" />
        </mxCell>
        <mxCell id="ZbHkgi49IRbF_nQF8odj-4" style="rounded=0;orthogonalLoop=1;jettySize=auto;html=1;endArrow=none;endFill=0;" parent="1" target="mJ1nvMA460GZ3lgA4mz--12" edge="1">
          <mxGeometry relative="1" as="geometry">
            <mxPoint x="90" y="560" as="sourcePoint" />
            <mxPoint x="147.01929469014055" y="382.7546953113417" as="targetPoint" />
            <Array as="points" />
          </mxGeometry>
        </mxCell>
        <mxCell id="9rkXXKQiNZDfR_8JzhYm-4" style="edgeStyle=orthogonalEdgeStyle;rounded=1;orthogonalLoop=1;jettySize=auto;html=1;endArrow=open;endFill=0;dashed=1;startArrow=none;startFill=0;" edge="1" parent="1" source="mJ1nvMA460GZ3lgA4mz--13">
          <mxGeometry relative="1" as="geometry">
            <mxPoint x="124" y="480" as="targetPoint" />
            <mxPoint x="221.5" y="410.8249999999999" as="sourcePoint" />
            <Array as="points">
              <mxPoint x="222" y="430" />
              <mxPoint x="124" y="430" />
            </Array>
          </mxGeometry>
        </mxCell>
        <mxCell id="9rkXXKQiNZDfR_8JzhYm-5" value="&amp;lt;&amp;lt;include&amp;gt;&amp;gt;" style="text;html=1;resizable=0;autosize=1;align=center;verticalAlign=middle;points=[];fillColor=none;strokeColor=none;rounded=0;" vertex="1" parent="1">
          <mxGeometry x="120" y="420" width="90" height="30" as="geometry" />
        </mxCell>
        <mxCell id="9rkXXKQiNZDfR_8JzhYm-7" value="Информационная&lt;br&gt;&amp;nbsp;система" style="shape=umlActor;verticalLabelPosition=bottom;verticalAlign=top;html=1;" vertex="1" parent="1">
          <mxGeometry x="70" y="1100" width="30" height="60" as="geometry" />
        </mxCell>
        <mxCell id="9rkXXKQiNZDfR_8JzhYm-34" style="edgeStyle=orthogonalEdgeStyle;rounded=0;orthogonalLoop=1;jettySize=auto;html=1;endArrow=none;endFill=0;" edge="1" parent="1" source="9rkXXKQiNZDfR_8JzhYm-11" target="9rkXXKQiNZDfR_8JzhYm-13">
          <mxGeometry relative="1" as="geometry">
            <Array as="points">
              <mxPoint x="85" y="903" />
            </Array>
          </mxGeometry>
        </mxCell>
        <mxCell id="9rkXXKQiNZDfR_8JzhYm-11" value="Пассажир" style="shape=umlActor;verticalLabelPosition=bottom;verticalAlign=top;html=1;" vertex="1" parent="1">
          <mxGeometry x="70" y="917.5" width="30" height="60" as="geometry" />
        </mxCell>
        <mxCell id="9rkXXKQiNZDfR_8JzhYm-35" style="edgeStyle=orthogonalEdgeStyle;rounded=0;orthogonalLoop=1;jettySize=auto;html=1;entryX=0.5;entryY=0;entryDx=0;entryDy=0;dashed=1;dashPattern=1 4;" edge="1" parent="1" source="9rkXXKQiNZDfR_8JzhYm-13" target="9rkXXKQiNZDfR_8JzhYm-18">
          <mxGeometry relative="1" as="geometry" />
        </mxCell>
        <mxCell id="9rkXXKQiNZDfR_8JzhYm-13" value="&lt;div style=&quot;&quot;&gt;&lt;span style=&quot;background-color: initial;&quot;&gt;Найти подходящий транспорт и маршрут&lt;/span&gt;&lt;/div&gt;" style="ellipse;whiteSpace=wrap;html=1;align=center;" vertex="1" parent="1">
          <mxGeometry x="170" y="870" width="125" height="65" as="geometry" />
        </mxCell>
        <mxCell id="9rkXXKQiNZDfR_8JzhYm-16" value="Вывод маршрутов по критериям Пассажира" style="ellipse;whiteSpace=wrap;html=1;" vertex="1" parent="1">
          <mxGeometry x="190" y="1090" width="120" height="70" as="geometry" />
        </mxCell>
        <mxCell id="9rkXXKQiNZDfR_8JzhYm-17" value="Анализ критериев Пассажира" style="ellipse;whiteSpace=wrap;html=1;" vertex="1" parent="1">
          <mxGeometry x="180" y="1000" width="110" height="50" as="geometry" />
        </mxCell>
        <mxCell id="9rkXXKQiNZDfR_8JzhYm-36" style="edgeStyle=orthogonalEdgeStyle;rounded=0;orthogonalLoop=1;jettySize=auto;html=1;dashed=1;dashPattern=1 4;" edge="1" parent="1" source="9rkXXKQiNZDfR_8JzhYm-18" target="9rkXXKQiNZDfR_8JzhYm-21">
          <mxGeometry relative="1" as="geometry" />
        </mxCell>
        <mxCell id="9rkXXKQiNZDfR_8JzhYm-18" value="Ввод критериев поиска маршрута" style="ellipse;whiteSpace=wrap;html=1;" vertex="1" parent="1">
          <mxGeometry x="331" y="930" width="115" height="50" as="geometry" />
        </mxCell>
        <mxCell id="9rkXXKQiNZDfR_8JzhYm-20" value="Сортировка оптимизации по: цене, времени, пересадке" style="ellipse;whiteSpace=wrap;html=1;" vertex="1" parent="1">
          <mxGeometry x="500" y="1055" width="126" height="60" as="geometry" />
        </mxCell>
        <mxCell id="9rkXXKQiNZDfR_8JzhYm-21" value="Выбор понравившегося маршрута" style="ellipse;whiteSpace=wrap;html=1;" vertex="1" parent="1">
          <mxGeometry x="556" y="925" width="115" height="60" as="geometry" />
        </mxCell>
        <mxCell id="9rkXXKQiNZDfR_8JzhYm-29" style="rounded=0;orthogonalLoop=1;jettySize=auto;html=1;endArrow=none;endFill=0;" edge="1" parent="1" target="9rkXXKQiNZDfR_8JzhYm-17">
          <mxGeometry relative="1" as="geometry">
            <mxPoint x="110" y="1110" as="sourcePoint" />
            <mxPoint x="157.01929469014055" y="912.7546953113417" as="targetPoint" />
            <Array as="points" />
          </mxGeometry>
        </mxCell>
        <mxCell id="9rkXXKQiNZDfR_8JzhYm-37" value="&amp;lt;&amp;lt;include&amp;gt;&amp;gt;" style="text;html=1;resizable=0;autosize=1;align=center;verticalAlign=middle;points=[];fillColor=none;strokeColor=none;rounded=0;" vertex="1" parent="1">
          <mxGeometry x="295" y="880" width="90" height="30" as="geometry" />
        </mxCell>
        <mxCell id="9rkXXKQiNZDfR_8JzhYm-38" value="&amp;lt;&amp;lt;include&amp;gt;&amp;gt;" style="text;html=1;resizable=0;autosize=1;align=center;verticalAlign=middle;points=[];fillColor=none;strokeColor=none;rounded=0;" vertex="1" parent="1">
          <mxGeometry x="448" y="932.5" width="90" height="30" as="geometry" />
        </mxCell>
        <mxCell id="9rkXXKQiNZDfR_8JzhYm-41" value="Нахождение оптимальных маршрутов&amp;nbsp;" style="ellipse;whiteSpace=wrap;html=1;" vertex="1" parent="1">
          <mxGeometry x="359" y="1115" width="110" height="50" as="geometry" />
        </mxCell>
        <mxCell id="9rkXXKQiNZDfR_8JzhYm-42" value="" style="rounded=1;orthogonalLoop=1;jettySize=auto;html=1;startArrow=none;startFill=0;endArrow=none;endFill=0;entryX=0;entryY=0.5;entryDx=0;entryDy=0;" edge="1" parent="1" target="9rkXXKQiNZDfR_8JzhYm-16">
          <mxGeometry relative="1" as="geometry">
            <mxPoint x="110" y="1130" as="sourcePoint" />
            <mxPoint x="245.03220218528347" y="1139.9992681321528" as="targetPoint" />
          </mxGeometry>
        </mxCell>
        <mxCell id="9rkXXKQiNZDfR_8JzhYm-43" style="edgeStyle=orthogonalEdgeStyle;rounded=0;orthogonalLoop=1;jettySize=auto;html=1;dashed=1;dashPattern=1 4;exitX=0.825;exitY=0.057;exitDx=0;exitDy=0;entryX=0.6;entryY=-0.02;entryDx=0;entryDy=0;entryPerimeter=0;exitPerimeter=0;" edge="1" parent="1" source="9rkXXKQiNZDfR_8JzhYm-16" target="9rkXXKQiNZDfR_8JzhYm-41">
          <mxGeometry relative="1" as="geometry">
            <mxPoint x="365" y="1077.5" as="sourcePoint" />
            <mxPoint x="475" y="1077.5" as="targetPoint" />
          </mxGeometry>
        </mxCell>
        <mxCell id="9rkXXKQiNZDfR_8JzhYm-44" value="&amp;lt;&amp;lt;include&amp;gt;&amp;gt;" style="text;html=1;resizable=0;autosize=1;align=center;verticalAlign=middle;points=[];fillColor=none;strokeColor=none;rounded=0;" vertex="1" parent="1">
          <mxGeometry x="331" y="1070" width="90" height="30" as="geometry" />
        </mxCell>
        <mxCell id="9rkXXKQiNZDfR_8JzhYm-46" style="edgeStyle=orthogonalEdgeStyle;rounded=0;orthogonalLoop=1;jettySize=auto;html=1;dashed=1;dashPattern=1 4;exitX=1;exitY=0.5;exitDx=0;exitDy=0;entryX=0.922;entryY=0.033;entryDx=0;entryDy=0;entryPerimeter=0;" edge="1" parent="1" source="9rkXXKQiNZDfR_8JzhYm-41" target="9rkXXKQiNZDfR_8JzhYm-47">
          <mxGeometry relative="1" as="geometry">
            <mxPoint x="475" y="1140" as="sourcePoint" />
            <mxPoint x="555" y="1164" as="targetPoint" />
            <Array as="points">
              <mxPoint x="563" y="1140" />
            </Array>
          </mxGeometry>
        </mxCell>
        <mxCell id="9rkXXKQiNZDfR_8JzhYm-47" value="&amp;lt;&amp;lt;include&amp;gt;&amp;gt;" style="text;html=1;resizable=0;autosize=1;align=center;verticalAlign=middle;points=[];fillColor=none;strokeColor=none;rounded=0;" vertex="1" parent="1">
          <mxGeometry x="480" y="1115" width="90" height="30" as="geometry" />
        </mxCell>
      </root>
    </mxGraphModel>
  </diagram>
</mxfile>
